<svg width="20" height="24" viewBox="0 0 20 24" fill="none" xmlns="http://www.w3.org/2000/svg">
<path d="M1 6.375H19M17.875 6.375L16.8996 20.0348C16.8592 20.6024 16.6052 21.1337 16.1888 21.5215C15.7723 21.9094 15.2243 22.125 14.6553 22.125H5.34475C4.77566 22.125 4.2277 21.9094 3.81125 21.5215C3.39479 21.1337 3.14078 20.6024 3.10038 20.0348L2.125 6.375H17.875ZM7.75 10.875V17.625V10.875ZM12.25 10.875V17.625V10.875ZM13.375 6.375V3C13.375 2.70163 13.2565 2.41548 13.0455 2.2045C12.8345 1.99353 12.5484 1.875 12.25 1.875H7.75C7.45163 1.875 7.16548 1.99353 6.95451 2.2045C6.74353 2.41548 6.625 2.70163 6.625 3V6.375H13.375Z" stroke="#B5B5B9" stroke-width="2" stroke-linecap="round" stroke-linejoin="round"/>
</svg>
